# xmcd
#
# Track frame offsets:
#	150
#	15170
#	28915
#	46658
#	71450
#	90668
#	104843
#	119690
#	137850
#	166283
#	180868
#	194953
#	212463
#
# Disc length: 3096 seconds
#
# Revision: 0
# Processed by: cddbd v1.4PL0 Copyright (c) Steve Scherf et al.
# Submitted via: dBpowerAMP V4.0
#
DISCID=b30c160d
DTITLE=Grant and Forsyth - Warm Feelings
DYEAR=1900
DGENRE=Country
TTITLE0=Behind Closed Doors
TTITLE1=Warm Feeling
TTITLE2=Seeds
TTITLE3=Medley
TTITLE4=Don't
TTITLE5=Tennessee Waltz
TTITLE6=Queen Of Hearts
TTITLE7=Do You Love Me
TTITLE8=Medley
TTITLE9=Go Your Own Way
TTITLE10=The Right Place To Be
TTITLE11=I Just Can't Help Believing
TTITLE12=Once Upon A Time In The West
EXTD=
EXTT0=
EXTT1=
EXTT2=
EXTT3=
EXTT4=
EXTT5=
EXTT6=
EXTT7=
EXTT8=
EXTT9=
EXTT10=
EXTT11=
EXTT12=
PLAYORDER=
